<?xml version="1.0" standalone="no"?>
<!DOCTYPE svg PUBLIC "-//W3C//DTD SVG 20010904//EN"
 "http://www.w3.org/TR/2001/REC-SVG-20010904/DTD/svg10.dtd">
<svg version="1.0" xmlns="http://www.w3.org/2000/svg"
 width="300.000000pt" height="300.000000pt" viewBox="0 0 300.000000 300.000000"
 preserveAspectRatio="xMidYMid meet">
<metadata>
Created by potrace 1.10, written by Peter Selinger 2001-2011
</metadata>
<g transform="translate(0.000000,300.000000) scale(0.100000,-0.100000)"
fill="#000000" stroke="none">
<path d="M1600 2609 c0 -11 -22 -14 -113 -13 -61 1 -146 -3 -188 -8 -42 -5
-112 -9 -155 -10 -44 0 -84 -5 -89 -9 -6 -4 -23 -9 -38 -11 -34 -5 -31 -24 3
-21 14 1 90 7 170 13 80 6 225 13 322 16 169 5 178 4 197 -15 12 -12 28 -21
36 -21 8 0 15 -4 15 -8 0 -14 109 -65 215 -103 33 -11 74 -27 90 -36 17 -8 40
-13 50 -11 18 4 17 6 -8 16 -15 6 -48 21 -73 32 -25 12 -52 19 -60 16 -8 -3
-14 0 -14 7 0 13 -53 37 -81 37 -8 0 -47 23 -88 50 -40 28 -80 50 -87 50 -7 0
-16 5 -20 11 -3 6 -16 8 -27 5 -12 -3 -29 2 -39 11 -14 13 -18 13 -18 2z"/>
<path d="M933 2533 c-7 -2 -13 -13 -13 -24 0 -12 -7 -19 -20 -19 -11 0 -20 -4
-20 -9 0 -5 -10 -9 -22 -9 -13 0 -82 -16 -154 -35 -127 -34 -206 -65 -219 -87
-3 -5 -13 -10 -21 -10 -13 0 -42 -26 -82 -75 -7 -8 -17 -13 -23 -10 -5 4 -9
-3 -9 -14 0 -11 -11 -28 -25 -37 -14 -9 -25 -23 -25 -31 0 -7 -9 -24 -20 -36
-11 -12 -19 -28 -18 -36 4 -20 28 -26 28 -7 0 18 60 106 72 106 4 0 8 10 8 23
0 16 3 18 9 8 7 -10 13 -6 26 16 17 28 114 103 134 103 6 0 11 4 11 8 0 5 19
13 43 19 229 58 280 73 294 84 9 8 17 13 17 12 1 -1 11 0 23 3 24 6 41 36 24
42 -6 2 -9 8 -5 13 6 10 5 10 -13 2z"/>
<path d="M970 2460 c0 -5 -15 -16 -34 -24 -41 -17 -62 -43 -25 -32 13 5 44 14
69 20 26 8 38 15 30 19 -10 3 -6 6 10 7 l25 2 -25 8 c-36 11 -50 11 -50 0z"/>
<path d="M1707 2464 c-13 -13 5 -24 39 -24 19 0 34 5 34 10 0 6 -9 10 -19 10
-11 0 -26 2 -33 5 -8 3 -17 3 -21 -1z"/>
<path d="M1063 2433 c4 -3 21 -6 39 -5 18 0 40 -5 48 -13 9 -8 26 -13 38 -12
24 1 31 17 7 17 -8 0 -15 5 -15 10 0 6 -27 10 -62 10 -34 0 -58 -3 -55 -7z"/>
<path d="M1833 2433 c9 -2 17 -8 17 -13 0 -4 18 -11 40 -15 22 -4 40 -11 40
-16 0 -5 9 -9 19 -9 11 0 26 -6 33 -12 8 -7 25 -20 40 -28 76 -44 244 -203
272 -257 9 -18 22 -36 29 -40 14 -8 32 -63 21 -63 -3 0 -26 14 -51 30 -24 17
-53 30 -64 30 -10 0 -19 4 -19 9 0 4 -21 14 -47 21 -27 7 -59 21 -73 30 -14 9
-38 21 -55 25 -37 10 -36 10 -57 19 -10 5 -25 6 -33 2 -8 -3 -15 -1 -15 4 0
10 -17 16 -72 26 -31 5 -38 3 -38 -10 0 -10 9 -16 25 -16 14 0 25 -4 25 -9 0
-5 9 -11 20 -14 11 -3 20 -14 20 -24 0 -11 11 -42 25 -69 14 -27 25 -57 25
-66 0 -10 4 -18 9 -18 5 0 12 -16 15 -35 4 -19 11 -35 16 -35 7 0 19 -35 22
-67 1 -5 18 -35 38 -69 21 -33 41 -70 44 -82 4 -12 12 -22 17 -22 5 0 9 -6 9
-13 0 -7 13 -28 29 -47 15 -19 31 -45 35 -57 4 -13 13 -23 20 -23 7 0 25 -12
42 -28 16 -15 47 -36 69 -47 22 -11 43 -24 47 -30 4 -5 28 -10 53 -10 25 0 45
-4 45 -10 0 -5 12 3 27 19 22 24 27 40 31 102 3 52 1 74 -7 74 -18 0 -24 -26
-11 -50 9 -16 8 -25 -1 -37 -8 -8 -13 -25 -14 -36 0 -11 -6 -22 -12 -24 -7 -3
-13 1 -13 9 0 7 -9 19 -19 25 -15 10 -22 9 -31 -2 -10 -13 -8 -15 14 -15 16 0
26 -6 26 -14 0 -23 -27 -26 -54 -5 -14 11 -34 22 -45 24 -27 5 -61 28 -61 41
0 7 -9 14 -20 17 -11 3 -24 17 -30 31 -5 14 -14 26 -20 26 -13 0 -59 51 -60
65 0 6 -9 16 -20 23 -11 7 -20 20 -20 31 0 10 -13 38 -30 62 -16 24 -30 51
-30 59 0 8 -7 24 -15 34 -18 24 -19 53 -2 59 6 3 0 6 -14 6 -22 1 -28 7 -31
30 -2 17 0 37 4 45 7 12 4 16 -13 16 -15 0 -19 4 -15 16 4 9 0 21 -8 28 -9 6
-18 30 -22 54 -7 46 -7 46 51 22 11 -5 31 -11 45 -14 24 -5 50 -44 50 -73 0
-18 -46 -16 -75 3 -14 9 -25 12 -25 6 0 -16 26 -32 56 -36 16 -3 37 -7 47 -11
11 -5 17 -2 17 6 0 11 3 11 10 -1 5 -8 10 -13 11 -10 8 43 8 60 -1 60 -5 0
-10 -8 -10 -17 0 -15 -2 -15 -9 -4 -18 28 -3 40 37 28 20 -6 39 -14 42 -17 3
-3 37 -20 75 -39 39 -19 80 -46 93 -60 30 -35 57 -83 54 -99 -2 -7 4 -19 12
-27 13 -13 15 -13 21 6 4 13 2 25 -5 29 -7 4 -10 15 -7 25 5 11 3 14 -5 9 -8
-5 -9 -2 -5 9 3 9 1 22 -6 29 -28 28 -54 74 -50 86 3 6 0 12 -6 12 -6 0 -11 6
-11 14 0 18 -51 96 -62 96 -4 0 -8 4 -8 9 0 17 38 -1 43 -20 3 -11 9 -18 14
-17 17 6 56 -31 50 -46 -4 -9 -1 -16 6 -16 14 0 67 -54 67 -69 0 -5 12 -23 26
-38 14 -15 35 -45 45 -65 11 -21 23 -38 27 -38 4 0 16 -17 27 -37 11 -21 22
-40 25 -43 14 -14 50 -90 50 -106 0 -11 12 -41 25 -69 14 -27 25 -59 25 -70 0
-11 7 -33 15 -49 8 -15 15 -51 15 -78 0 -46 20 -136 40 -183 11 -26 11 -83 0
-90 -4 -3 -11 -28 -15 -55 -4 -28 -10 -50 -15 -50 -8 0 -18 -52 -25 -128 -5
-61 12 -42 26 29 7 34 19 65 29 72 24 17 31 65 11 77 -10 6 -11 10 -3 10 6 0
11 3 10 8 0 4 1 14 4 22 26 77 26 79 3 172 -12 51 -26 115 -30 142 -9 67 -15
82 -26 64 -5 -8 -9 12 -9 50 0 45 -4 64 -14 68 -8 3 -22 29 -32 57 -9 29 -27
69 -40 89 -13 21 -24 44 -24 52 0 8 -5 18 -11 21 -5 4 -14 18 -19 31 -5 13
-16 24 -25 24 -9 0 -15 9 -15 25 0 14 -4 25 -9 25 -5 0 -12 11 -15 25 -4 16
-13 25 -26 25 -15 0 -20 7 -20 26 0 14 -4 23 -9 20 -4 -3 -17 10 -27 29 -10
20 -26 35 -36 35 -11 0 -18 8 -18 20 0 11 -7 23 -15 26 -8 3 -17 14 -20 24 -3
10 -19 23 -35 28 -15 6 -33 20 -40 31 -6 12 -17 21 -24 21 -8 0 -20 7 -27 16
-35 42 -291 184 -332 184 -9 0 -17 5 -19 11 -2 5 -21 12 -43 13 -22 2 -32 2
-22 -1z"/>
<path d="M1555 2410 c-30 -5 -33 -8 -13 -9 14 0 29 -7 32 -13 5 -10 7 -10 12
0 3 6 15 12 25 12 11 0 17 5 14 10 -7 11 -10 11 -70 0z"/>
<path d="M745 2373 c-11 -3 -24 -9 -30 -13 -5 -4 -22 -10 -36 -13 -14 -4 -36
-16 -49 -27 -13 -11 -31 -18 -41 -15 -9 3 -20 1 -24 -5 -3 -5 -1 -10 6 -10 7
0 3 -9 -9 -20 -12 -11 -26 -20 -32 -20 -5 0 -10 -4 -10 -9 0 -5 -13 -23 -30
-39 -16 -17 -30 -35 -30 -41 0 -6 -4 -11 -10 -11 -5 0 -24 -24 -42 -53 -37
-60 -42 -68 -81 -127 -16 -23 -27 -50 -24 -60 3 -13 0 -16 -12 -13 -11 3 -21
-5 -28 -20 -10 -22 -9 -24 8 -20 22 6 23 3 7 -32 -12 -27 -35 -29 -30 -1 4 20
-7 20 -32 1 -16 -12 -17 -17 -6 -30 7 -9 19 -14 27 -11 7 3 13 -1 13 -10 0 -8
-4 -13 -9 -9 -14 8 -25 -15 -14 -26 10 -10 63 59 63 80 0 6 9 25 20 44 12 19
20 39 18 43 -3 12 43 96 94 172 77 115 255 253 378 295 19 7 -28 6 -55 0z"/>
<path d="M980 2370 c0 -6 16 -8 43 -4 58 9 59 14 4 14 -26 0 -47 -5 -47 -10z"/>
<path d="M900 2360 c-8 -5 -34 -10 -57 -10 -24 0 -43 -4 -43 -9 0 -5 -13 -12
-30 -16 -16 -4 -30 -11 -30 -16 0 -9 36 -4 115 16 28 7 62 16 78 19 15 4 27
11 27 16 0 13 -40 13 -60 0z"/>
<path d="M2140 2361 c0 -5 16 -16 35 -25 19 -9 35 -21 35 -26 0 -6 8 -10 18
-10 20 0 62 -35 62 -51 0 -6 8 -9 17 -7 9 2 27 -6 39 -17 12 -11 39 -35 59
-53 39 -35 55 -34 55 1 0 17 -2 19 -9 8 -7 -11 -14 -9 -35 12 -24 24 -118 91
-200 142 -17 10 -32 23 -34 27 -5 11 -42 10 -42 -1z"/>
<path d="M1350 2350 l-45 -5 36 -8 c19 -4 53 -16 74 -27 22 -11 53 -20 70 -21
32 -1 87 -16 70 -19 -10 -2 110 -46 153 -57 36 -9 26 14 -18 39 -35 20 -40 27
-40 61 0 20 -5 37 -10 37 -18 0 -23 -29 -9 -47 10 -12 10 -15 2 -9 -7 4 -13 3
-13 -1 0 -27 -105 17 -114 47 -3 11 -4 11 -5 -2 -1 -11 -9 -18 -20 -18 -36 0
-80 12 -83 24 -2 7 -19 9 -48 6z"/>
<path d="M1876 2305 c-4 -11 2 -15 26 -15 30 0 31 1 12 15 -24 18 -31 18 -38
0z"/>
<path d="M1020 2242 c-14 -2 -33 -11 -43 -20 -11 -9 -35 -16 -60 -16 -41 1
-41 1 -4 -3 20 -2 37 -6 37 -9 0 -3 -22 -47 -50 -99 -27 -52 -50 -99 -50 -105
0 -6 -11 -23 -25 -38 -16 -16 -24 -34 -21 -46 3 -11 -7 -33 -24 -55 -33 -41
-59 -100 -53 -118 3 -7 0 -13 -5 -13 -6 0 -12 6 -15 13 -3 7 -9 0 -15 -15 -6
-15 -23 -37 -37 -50 -14 -12 -25 -27 -25 -34 0 -7 -6 -17 -13 -21 -8 -4 -16
-16 -20 -25 -3 -10 -19 -18 -39 -20 -18 -2 -32 -7 -30 -13 3 -10 13 -10 57 -3
26 4 65 50 65 77 0 16 6 21 25 21 16 0 25 6 25 16 0 8 13 29 30 45 23 24 28
36 24 58 -5 24 -3 29 12 28 10 -1 24 10 33 28 9 16 22 36 29 44 10 10 10 16 2
21 -8 5 -6 12 6 24 31 31 64 87 58 97 -3 6 6 21 20 34 14 13 26 32 26 42 0 10
15 42 33 70 24 40 38 53 57 53 14 0 33 7 43 14 16 13 16 14 -5 17 -13 3 -34 3
-48 1z"/>
<path d="M1930 2191 c0 -10 50 -25 58 -16 8 7 1 11 -30 19 -16 3 -28 2 -28 -3z"/>
<path d="M760 2178 c-25 -5 -49 -14 -54 -19 -6 -5 -20 -9 -33 -9 -13 0 -23 -4
-23 -10 0 -5 -9 -10 -20 -10 -10 0 -34 -6 -52 -14 -18 -8 -45 -17 -60 -20 -15
-3 -33 -13 -42 -21 -8 -8 -18 -15 -23 -16 -13 -1 -66 -69 -54 -69 6 0 11 5 11
10 0 6 7 10 15 10 8 0 15 -4 15 -10 0 -19 18 -10 24 13 6 27 62 62 93 59 13
-1 23 2 23 7 0 4 28 18 63 31 34 12 66 26 72 31 5 5 19 9 32 9 13 0 23 4 23
10 0 5 6 7 13 4 8 -3 20 2 27 11 14 17 13 17 -50 3z"/>
<path d="M1526 2156 c4 -11 12 -24 18 -28 15 -11 36 -10 36 1 0 5 12 12 27 16
36 9 16 21 -45 28 -40 4 -42 3 -36 -17z"/>
<path d="M2460 2133 c0 -7 8 -21 18 -31 9 -11 26 -31 36 -45 23 -32 36 -34 36
-6 0 11 -5 17 -10 14 -6 -3 -14 5 -20 19 -5 15 -14 25 -19 24 -5 -2 -17 6 -25
17 -9 11 -16 14 -16 8z"/>
<path d="M235 2057 c-4 -14 -22 -36 -40 -49 -18 -12 -32 -26 -29 -29 2 -4 -12
-24 -31 -45 -25 -26 -32 -40 -24 -45 14 -8 39 20 59 68 8 17 18 29 22 27 5 -3
11 2 14 10 3 9 12 16 20 16 8 0 14 9 14 19 0 11 6 21 13 24 9 3 9 7 0 17 -9
10 -13 8 -18 -13z"/>
<path d="M537 2030 c-15 -16 -27 -32 -27 -36 0 -3 -7 -13 -16 -22 -10 -10 -12
-18 -6 -20 14 -4 48 30 72 73 24 43 12 45 -23 5z"/>
<path d="M2550 2011 c0 -5 11 -18 25 -29 14 -11 25 -25 25 -32 0 -6 4 -9 9 -5
12 7 -30 74 -46 75 -7 0 -13 -4 -13 -9z"/>
<path d="M410 1934 c-12 -24 -26 -44 -31 -44 -5 0 -9 -10 -9 -22 0 -12 -3 -18
-7 -15 -3 4 -20 -26 -36 -66 -24 -58 -31 -91 -35 -168 l-4 -96 34 -34 c33 -33
76 -45 95 -26 3 4 14 7 24 7 10 0 24 6 32 14 7 8 25 16 38 19 15 3 9 5 -18 6
-23 0 -43 -3 -45 -7 -1 -4 -26 -6 -53 -4 -50 4 -51 4 -67 49 -17 47 -16 145 1
167 5 6 12 28 15 50 4 21 15 47 25 58 10 10 29 39 41 63 21 41 31 50 53 46 13
-2 7 14 -12 31 -19 16 -21 15 -41 -28z"/>
<path d="M2160 1960 c0 -11 -4 -20 -10 -20 -5 0 -10 -4 -10 -10 0 -20 28 -9
34 13 8 31 7 37 -4 37 -5 0 -10 -9 -10 -20z"/>
<path d="M2185 1880 c-4 -6 -2 -17 4 -24 6 -7 8 -16 4 -19 -3 -4 -2 -7 4 -7
18 0 22 24 8 44 -9 11 -15 13 -20 6z"/>
<path d="M2306 1860 c13 -21 20 -26 26 -17 12 18 10 27 -7 27 -8 0 -15 5 -15
10 0 6 -5 10 -11 10 -5 0 -2 -13 7 -30z"/>
<path d="M2267 1833 c-7 -12 11 -53 22 -53 6 0 6 11 0 30 -11 31 -15 35 -22
23z"/>
<path d="M2893 1818 c-22 -11 -33 -58 -14 -58 5 0 11 -13 13 -29 4 -28 3 -29
-54 -35 -63 -8 -76 -17 -53 -39 8 -9 15 -19 15 -24 1 -4 9 -26 20 -48 11 -22
19 -48 20 -57 0 -9 4 -19 9 -22 12 -7 32 -120 31 -171 -1 -22 2 -79 7 -127 8
-82 7 -87 -11 -90 -11 -2 -21 -9 -24 -16 -5 -16 25 -5 58 21 14 11 18 17 8 14
-13 -5 -16 1 -14 33 1 22 5 42 8 45 9 10 -2 107 -13 121 -7 8 -6 15 1 19 8 5
10 22 5 51 -4 30 -3 44 5 44 6 0 1 14 -11 32 -18 24 -19 30 -7 25 9 -3 22 1
28 9 7 8 28 14 46 14 19 0 34 5 34 11 0 7 -12 9 -32 5 -111 -21 -112 -21 -106
2 4 13 -1 27 -13 38 -22 20 -25 40 -6 47 6 3 2 6 -11 6 -28 1 -24 26 4 26 10
0 21 2 24 5 7 7 68 27 108 35 29 6 46 25 21 25 -28 0 -51 51 -29 65 13 8 -13
35 -32 34 -7 0 -23 -5 -35 -11z"/>
<path d="M2455 1782 c-15 -10 -17 -32 -3 -29 6 1 13 -11 14 -26 2 -16 10 -40
18 -53 9 -13 16 -37 16 -54 0 -16 5 -30 10 -30 15 0 11 60 -8 115 -23 66 -35
86 -47 77z"/>
<path d="M160 1744 c-13 -32 -12 -57 0 -26 5 12 16 25 25 28 19 8 19 24 0 24
-9 0 -20 -12 -25 -26z"/>
<path d="M9 1723 c-5 -15 -8 -41 -6 -57 3 -28 4 -27 5 7 1 23 8 40 17 43 17 7
21 34 5 34 -6 0 -15 -12 -21 -27z"/>
<path d="M193 1725 c-8 -9 -9 -16 -3 -20 11 -7 14 -48 3 -42 -10 5 -38 -25
-40 -43 -1 -8 -7 -31 -14 -50 -21 -61 -22 -65 -20 -74 1 -5 -8 -20 -21 -33
-21 -22 -21 -25 -6 -34 9 -5 19 -23 23 -39 4 -17 11 -28 16 -24 5 3 9 -13 9
-35 0 -30 -4 -41 -15 -41 -8 0 -15 -4 -15 -10 0 -5 4 -10 9 -10 5 0 13 -17 19
-37 8 -31 10 -11 11 102 1 133 15 226 41 280 41 84 43 156 3 110z"/>
<path d="M2538 1720 c6 -8 12 -24 12 -35 0 -12 9 -30 20 -40 11 -10 20 -13 20
-7 0 6 -4 14 -10 17 -5 3 -10 14 -10 24 0 10 -10 26 -22 37 -13 10 -17 12 -10
4z"/>
<path d="M2226 1695 c-20 -30 -20 -35 -1 -35 8 0 15 4 15 10 0 5 6 7 14 4 14
-6 30 22 20 37 -10 16 -31 9 -48 -16z"/>
<path d="M2561 1426 c-9 -10 -9 -15 0 -18 15 -5 18 -230 3 -249 -6 -8 -14 -27
-17 -44 -13 -79 -94 -262 -119 -271 -10 -3 -18 -12 -18 -19 0 -8 -9 -30 -20
-50 -11 -19 -15 -35 -10 -35 11 0 87 98 115 149 11 20 22 38 26 41 10 10 42
85 42 100 0 8 6 40 13 70 20 75 27 236 12 263 -8 16 -8 22 0 25 8 2 9 9 2 21
-5 10 -6 21 -3 25 3 3 2 6 -4 6 -6 0 -16 -6 -22 -14z"/>
<path d="M68 1414 c-5 -4 -8 -25 -8 -46 0 -21 -4 -38 -9 -38 -5 0 -11 -7 -15
-15 -4 -10 1 -15 14 -15 25 0 67 83 45 88 -8 2 -15 10 -17 19 -2 8 -6 11 -10
7z"/>
<path d="M2665 1250 c6 -141 -1 -250 -16 -250 -5 0 -9 15 -9 33 0 23 -3 28 -9
18 -5 -8 -7 -29 -4 -46 12 -72 -33 -187 -92 -238 -11 -10 -15 -17 -10 -16 29
4 44 -2 39 -16 -8 -20 3 -19 31 3 22 18 23 20 7 35 -10 11 -12 17 -4 17 7 0
12 -5 12 -11 0 -5 5 -7 10 -4 8 5 7 11 0 20 -7 8 -9 19 -5 26 6 8 10 7 16 -2
10 -16 12 -4 9 43 -1 16 7 35 19 47 15 15 19 29 15 45 -3 14 -1 33 5 43 8 14
10 14 11 3 0 -12 2 -12 9 -2 4 8 4 34 -2 60 -7 33 -6 51 3 65 7 12 8 22 2 26
-5 3 -11 49 -14 101 -2 52 -9 104 -16 115 -10 16 -11 -6 -7 -115z"/>
<path d="M78 1272 c-10 -2 -18 -10 -18 -18 0 -16 9 -18 29 -5 18 12 10 28 -11
23z"/>
<path d="M40 1207 c0 -23 4 -36 10 -32 6 4 10 -13 10 -44 0 -27 5 -53 11 -57
6 -3 9 -17 6 -30 -2 -13 0 -24 4 -24 5 0 9 -5 9 -11 0 -5 -4 -8 -9 -5 -4 3 -6
-6 -3 -19 2 -14 8 -25 13 -25 13 0 23 22 13 29 -5 3 -10 56 -11 116 -3 134 -3
136 -12 105 l-7 -25 -17 30 -16 30 -1 -38z"/>
<path d="M0 939 c0 -25 16 -39 43 -39 7 1 5 6 -4 13 -8 7 -21 21 -27 32 -11
19 -11 18 -12 -6z"/>
<path d="M860 910 c0 -5 6 -10 13 -10 6 -1 27 -22 46 -49 35 -49 61 -62 61
-29 0 10 -4 18 -9 18 -5 0 -27 18 -49 40 -38 39 -62 50 -62 30z"/>
<path d="M1870 874 c0 -25 -36 -68 -98 -116 -20 -16 -32 -55 -14 -46 48 24 62
32 62 40 0 4 6 8 14 8 8 0 18 9 21 20 3 11 10 20 15 20 10 0 40 63 40 84 0 9
-8 16 -20 16 -15 0 -20 -7 -20 -26z"/>
<path d="M2685 805 c-16 -36 -36 -65 -42 -65 -9 0 -13 -17 -13 -53 0 -56 -25
-147 -41 -147 -5 0 -9 -7 -9 -15 0 -22 22 -9 46 28 14 21 26 63 33 122 7 50
16 91 22 93 13 5 41 68 37 86 -1 8 -16 -14 -33 -49z"/>
<path d="M2526 844 c-18 -17 -22 -54 -6 -54 6 0 10 10 10 23 0 13 5 28 12 35
7 7 9 12 6 12 -4 0 -14 -7 -22 -16z"/>
<path d="M1093 743 c-7 -2 -13 -11 -13 -20 0 -21 44 -13 48 10 3 17 -10 21
-35 10z"/>
<path d="M2487 713 c-3 -16 -1 -32 4 -37 5 -6 9 -2 9 11 0 12 5 25 10 28 15 9
12 25 -4 25 -7 0 -16 -12 -19 -27z"/>
<path d="M1710 711 c0 -6 -14 -11 -31 -13 -32 -3 -60 -30 -46 -44 4 -5 26 -1
49 7 30 11 42 21 43 37 1 12 -2 22 -7 22 -4 0 -8 -4 -8 -9z"/>
<path d="M2410 700 c-6 -11 -17 -20 -25 -20 -21 0 -19 -14 5 -35 12 -11 26
-15 37 -10 16 6 16 8 -5 23 l-24 16 22 16 c15 11 19 20 12 24 -6 4 -16 -3 -22
-14z"/>
<path d="M1177 704 c-3 -3 -1 -12 6 -19 9 -9 14 -9 24 1 7 7 13 15 13 18 0 8
-35 8 -43 0z"/>
<path d="M2544 675 c4 -17 2 -25 -6 -25 -10 0 -10 -2 -1 -8 6 -4 15 -19 18
-35 4 -15 11 -24 16 -21 12 7 11 44 -2 83 -13 37 -34 42 -25 6z"/>
<path d="M1293 673 c-7 -3 -13 -9 -13 -14 0 -11 31 -12 48 0 11 6 10 9 -5 13
-10 3 -24 3 -30 1z"/>
<path d="M2457 674 c-10 -10 -9 -54 2 -54 5 0 14 7 21 16 11 12 11 18 -1 30
-9 8 -18 11 -22 8z"/>
<path d="M1350 658 c0 -5 9 -8 21 -8 11 0 17 -4 14 -10 -4 -6 5 -10 20 -10 15
0 24 4 20 10 -3 6 3 10 14 10 10 0 22 -6 25 -12 5 -10 7 -10 12 0 6 13 36 16
48 5 4 -5 25 -8 47 -9 31 0 39 3 37 15 -3 14 -23 16 -131 16 -70 0 -127 -3
-127 -7z"/>
<path d="M2350 650 c0 -5 -11 -10 -25 -10 -14 0 -25 -4 -25 -10 0 -11 30 -13
54 -4 17 7 22 34 6 34 -5 0 -10 -4 -10 -10z"/>
<path d="M2833 585 c0 -33 2 -45 4 -27 2 18 2 45 0 60 -2 15 -4 0 -4 -33z"/>
<path d="M2482 581 c-14 -20 -17 -28 -8 -27 21 3 46 26 46 42 0 22 -15 16 -38
-15z"/>
<path d="M0 585 c0 -14 7 -16 75 -19 21 -1 33 -8 40 -23 10 -23 35 -32 35 -13
0 6 -5 10 -11 10 -6 0 -9 7 -5 15 13 34 -4 45 -70 45 -50 0 -64 -3 -64 -15z"/>
<path d="M2305 579 c-3 -4 14 -9 37 -11 38 -3 40 -5 21 -13 -15 -7 -19 -15
-14 -23 6 -10 16 -5 40 17 32 30 32 31 10 32 -13 1 -39 2 -57 4 -18 1 -35 -1
-37 -6z"/>
<path d="M223 559 c9 -5 21 -8 26 -5 12 8 41 -3 41 -15 0 -5 -7 -9 -15 -9 -8
0 -15 -4 -15 -10 0 -5 14 -10 30 -10 31 0 36 9 21 39 -7 13 -23 18 -58 19 -37
1 -44 -1 -30 -9z"/>
<path d="M397 524 c-4 -4 -16 -7 -27 -8 -11 0 -20 -4 -20 -8 0 -5 0 -13 0 -19
0 -8 5 -7 15 1 12 10 19 10 27 2 7 -7 28 -12 48 -12 26 0 31 3 20 10 -8 5 -26
10 -40 11 -24 2 -24 2 -2 6 12 2 22 9 22 14 0 10 -33 12 -43 3z"/>
<path d="M185 477 c22 -19 41 -34 42 -33 1 1 -1 15 -5 32 -7 24 -14 30 -43 32
l-34 4 40 -35z"/>
<path d="M2381 495 c-54 -30 -38 -64 31 -65 31 0 40 -5 51 -27 8 -16 13 -36
12 -45 -2 -13 4 -18 21 -18 17 0 27 -8 34 -24 6 -16 17 -24 32 -24 13 0 79 -3
148 -8 130 -7 178 -23 201 -65 5 -11 16 -19 24 -19 8 0 15 -7 15 -15 0 -21 27
-19 33 3 2 9 8 25 12 35 6 15 4 17 -17 12 -17 -5 -34 2 -63 25 -21 17 -49 33
-62 36 -15 4 -22 12 -19 20 3 7 1 16 -4 19 -5 3 -11 -4 -15 -15 -7 -22 -20
-26 -30 -10 -4 6 -25 8 -48 6 -30 -4 -46 -1 -61 12 -11 9 -16 12 -13 6 4 -7 0
-14 -8 -18 -8 -3 -19 2 -24 11 -7 14 -12 15 -24 5 -10 -9 -17 -10 -22 -2 -3 5
-14 10 -24 10 -10 0 -24 7 -31 15 -7 9 -19 14 -27 11 -12 -5 -19 24 -14 61 1
7 -19 18 -44 24 -40 10 -63 29 -34 29 5 0 7 5 4 10 -3 6 -1 10 4 10 6 0 11 -3
11 -8 0 -4 16 -12 35 -18 46 -14 44 -9 -5 16 -45 23 -46 23 -79 5z"/>
<path d="M2540 499 c0 -5 -4 -8 -8 -5 -4 2 -14 1 -22 -5 -11 -6 -2 -9 28 -9
24 0 42 5 42 11 0 6 -7 8 -16 5 -8 -3 -12 -2 -9 4 3 6 1 10 -4 10 -6 0 -11 -5
-11 -11z"/>
<path d="M2268 474 c-3 -3 -19 -7 -34 -9 -16 -2 -31 -4 -34 -5 -3 0 9 -7 25
-14 33 -14 75 -3 75 21 0 13 -22 18 -32 7z"/>
<path d="M393 438 c-2 -5 -12 -8 -22 -8 -21 0 -33 -31 -21 -51 7 -10 11 -10
25 1 12 10 13 15 4 21 -8 4 -4 9 10 14 13 4 28 1 36 -5 12 -10 15 -9 15 3 0
11 5 14 16 10 12 -4 15 -2 12 8 -5 15 -66 20 -75 7z"/>
<path d="M2022 428 c-22 -14 -30 -23 -22 -28 7 -5 3 -9 -12 -13 -12 -4 -24 -2
-26 3 -2 6 -8 10 -13 10 -6 0 -7 -5 -4 -11 4 -6 -2 -13 -14 -16 -12 -3 -21 -9
-21 -13 0 -4 -13 -10 -30 -13 -16 -4 -30 -11 -30 -17 0 -13 37 -13 45 0 3 6
17 10 30 10 13 0 27 5 30 10 3 6 17 10 29 10 13 0 29 7 36 15 7 8 16 12 21 9
5 -3 25 -7 44 -9 25 -2 35 1 35 11 0 8 -4 14 -10 14 -5 0 -10 5 -10 11 0 11
-30 39 -40 38 -3 0 -20 -10 -38 -21z"/>
<path d="M15 406 c-18 -13 -17 -15 20 -21 60 -9 201 -42 263 -61 15 -4 22 -2
22 8 0 17 -78 40 -86 26 -4 -6 -9 -6 -14 1 -7 13 -102 41 -137 41 -13 0 -23 5
-23 10 0 14 -23 12 -45 -4z"/>
<path d="M2507 406 c-5 -11 3 -15 33 -14 33 0 37 2 25 14 -18 18 -51 18 -58 0z"/>
<path d="M2080 328 c1 -7 7 -24 14 -37 17 -31 29 -11 13 23 -13 27 -27 35 -27
14z"/>
<path d="M1734 275 c27 -21 53 -20 36 0 -7 8 -22 15 -34 15 -21 -1 -21 -1 -2
-15z"/>
<path d="M2068 234 c26 -11 31 -18 23 -28 -6 -7 -8 -16 -4 -19 9 -9 31 35 25
51 -2 7 -20 12 -41 11 l-36 -1 33 -14z"/>
<path d="M2188 213 c-15 -4 -15 -6 3 -24 10 -10 24 -19 29 -19 6 0 10 -7 10
-17 0 -19 13 -9 16 12 1 8 -8 18 -21 21 -15 4 -22 11 -18 20 3 8 4 13 2 13 -2
-1 -12 -3 -21 -6z"/>
<path d="M2814 179 c-10 -4 -33 -8 -51 -8 -17 -1 -34 -5 -37 -10 -3 -5 -23
-12 -43 -16 -37 -7 -37 -8 -13 -17 16 -6 33 -5 50 2 14 7 27 12 30 12 3 0 10
4 17 9 6 6 24 7 40 4 23 -4 24 -4 8 4 -19 9 -19 10 3 10 12 1 22 -3 22 -9 0
-5 5 -10 11 -10 5 0 8 4 4 9 -3 5 3 11 12 13 13 3 11 5 -8 9 -14 3 -34 2 -45
-2z"/>
<path d="M2131 161 c-8 -5 -16 -20 -17 -33 -7 -65 -18 -114 -28 -121 -6 -4 6
-6 26 -5 l36 2 4 57 c4 77 -3 111 -21 100z"/>
<path d="M2050 135 c-7 -8 -19 -15 -26 -15 -8 0 -14 -6 -14 -14 0 -19 50 -8
58 13 3 9 10 19 16 23 7 5 5 8 -5 8 -9 0 -22 -7 -29 -15z"/>
<path d="M2260 137 c0 -9 9 -22 20 -29 11 -7 20 -18 20 -24 0 -7 7 -14 15 -17
28 -11 21 8 -17 47 -26 27 -38 34 -38 23z"/>
<path d="M2523 143 c-21 -7 -15 -33 7 -33 11 0 20 6 20 14 0 18 -11 25 -27 19z"/>
<path d="M2451 116 c-6 -7 -8 -16 -4 -19 3 -4 -7 -8 -23 -8 -21 -1 -24 -3 -9
-6 11 -3 23 -10 26 -15 10 -16 26 -2 31 27 6 30 -5 41 -21 21z"/>
<path d="M1990 103 c0 -6 -8 -9 -19 -6 -11 3 -21 -2 -24 -11 -5 -12 0 -16 17
-16 22 0 43 26 31 38 -3 3 -5 1 -5 -5z"/>
<path d="M1908 73 c-10 -2 -18 -9 -18 -14 0 -5 -7 -9 -15 -9 -8 0 -15 -4 -15
-10 0 -18 32 -11 51 12 17 19 24 30 17 27 -2 -1 -11 -3 -20 -6z"/>
<path d="M2242 32 c-26 -4 -20 -22 8 -22 20 0 36 16 23 22 -5 2 -18 2 -31 0z"/>
</g>
</svg>
